<?xml version="1.0" encoding="UTF-8" standalone="no"?>
<!-- Created with Inkscape (http://www.inkscape.org/) -->

<svg
   xmlns:dc="http://purl.org/dc/elements/1.1/"
   xmlns:cc="http://creativecommons.org/ns#"
   xmlns:rdf="http://www.w3.org/1999/02/22-rdf-syntax-ns#"
   xmlns:svg="http://www.w3.org/2000/svg"
   xmlns="http://www.w3.org/2000/svg"
   xmlns:sodipodi="http://sodipodi.sourceforge.net/DTD/sodipodi-0.dtd"
   xmlns:inkscape="http://www.inkscape.org/namespaces/inkscape"
   width="200mm"
   height="200mm"
   viewBox="0 0 200 200"
   version="1.1"
   id="svg3719"
   sodipodi:docname="automajick.svg"
   inkscape:version="0.92.4 (5da689c313, 2019-01-14)"
   inkscape:export-filename="C:\Users\Dre West\Documents\GitHub\vscode-automajick\images\automajick.png"
   inkscape:export-xdpi="96"
   inkscape:export-ydpi="96">
  <defs
     id="defs3713">
    <inkscape:path-effect
       effect="knot"
       id="path-effect3823"
       is_visible="true"
       interruption_width="3"
       prop_to_stroke_width="true"
       add_stroke_width="true"
       add_other_stroke_width="true"
       switcher_size="15"
       crossing_points_vector="" />
    <inkscape:path-effect
       effect="gears"
       id="path-effect3821"
       is_visible="true"
       teeth="10"
       phi="5"
       min_radius="5" />
  </defs>
  <sodipodi:namedview
     id="base"
     pagecolor="#ffffff"
     bordercolor="#666666"
     borderopacity="1.0"
     inkscape:pageopacity="0.0"
     inkscape:pageshadow="2"
     inkscape:zoom="0.7"
     inkscape:cx="212.9332"
     inkscape:cy="303.23207"
     inkscape:document-units="mm"
     inkscape:current-layer="layer1"
     showgrid="false"
     units="mm"
     inkscape:window-width="1920"
     inkscape:window-height="1017"
     inkscape:window-x="-8"
     inkscape:window-y="-8"
     inkscape:window-maximized="1" />
  <metadata
     id="metadata3716">
    <rdf:RDF>
      <cc:Work
         rdf:about="">
        <dc:format>image/svg+xml</dc:format>
        <dc:type
           rdf:resource="http://purl.org/dc/dcmitype/StillImage" />
        <dc:title />
      </cc:Work>
    </rdf:RDF>
  </metadata>
  <g
     inkscape:groupmode="layer"
     id="layer2"
     inkscape:label="Layer 2">
    <rect
       style="fill:#89a02c;stroke-width:0.26458332"
       id="rect3803"
       width="200.8018"
       height="200.53453"
       x="0.53453898"
       y="0.34966439" />
  </g>
  <g
     inkscape:label="Layer 1"
     inkscape:groupmode="layer"
     id="layer1"
     transform="translate(0,-97.000002)">
    <flowRoot
       xml:space="preserve"
       id="flowRoot3721"
       style="font-style:normal;font-weight:normal;font-size:40px;line-height:0;font-family:sans-serif;letter-spacing:0px;word-spacing:0px;fill:#800000;fill-opacity:1;stroke:none;stroke-width:3.5537124;stroke-miterlimit:4;stroke-dasharray:none"
       transform="matrix(1.3816926,0,0,1.4327289,-366.93113,-100.85012)"><flowRegion
         id="flowRegion3723"
         style="line-height:0;fill:#800000;stroke-width:3.5537124;stroke-miterlimit:4;stroke-dasharray:none"><rect
           id="rect3725"
           width="277.14285"
           height="462.85715"
           x="274.28571"
           y="222.51968"
           style="line-height:0;fill:#800000;stroke-width:3.5537124;stroke-miterlimit:4;stroke-dasharray:none" /></flowRegion><flowPara
         id="flowPara3727"
         style="font-style:italic;font-variant:normal;font-weight:bold;font-stretch:normal;font-size:192px;line-height:0;font-family:sans-serif;-inkscape-font-specification:'sans-serif Bold Italic';fill:#800000;stroke-width:3.5537124;stroke-miterlimit:4;stroke-dasharray:none">A</flowPara></flowRoot>    <flowRoot
       xml:space="preserve"
       id="flowRoot3729"
       style="fill:black;fill-opacity:1;stroke:none;font-family:sans-serif;font-style:normal;font-weight:normal;font-size:40px;line-height:1.25;letter-spacing:0px;word-spacing:0px;stroke-width:5;stroke-miterlimit:4;stroke-dasharray:none"><flowRegion
         id="flowRegion3731"
         style="stroke-width:5;stroke-miterlimit:4;stroke-dasharray:none"><rect
           id="rect3733"
           width="31.428572"
           height="240"
           x="258.57144"
           y="-145.52306"
           style="stroke-width:5;stroke-miterlimit:4;stroke-dasharray:none" /></flowRegion><flowPara
         id="flowPara3735" /></flowRoot>    <flowRoot
       xml:space="preserve"
       id="flowRoot3737"
       style="fill:black;fill-opacity:1;stroke:none;font-family:sans-serif;font-style:normal;font-weight:normal;font-size:40px;line-height:1.25;letter-spacing:0px;word-spacing:0px;stroke-width:5;stroke-miterlimit:4;stroke-dasharray:none"><flowRegion
         id="flowRegion3739"
         style="stroke-width:5;stroke-miterlimit:4;stroke-dasharray:none"><rect
           id="rect3741"
           width="207.14285"
           height="217.14285"
           x="254.28572"
           y="-114.09448"
           style="stroke-width:5;stroke-miterlimit:4;stroke-dasharray:none" /></flowRegion><flowPara
         id="flowPara3743" /></flowRoot>    <path
       sodipodi:type="star"
       id="path3757"
       sodipodi:sides="5"
       sodipodi:cx="18.520835"
       sodipodi:cy="225.56251"
       sodipodi:r1="21.183535"
       sodipodi:r2="10.591767"
       sodipodi:arg1="1.2998495"
       sodipodi:arg2="1.928168"
       inkscape:flatsided="false"
       inkscape:rounded="0"
       inkscape:randomized="0"
       d="m 24.190478,245.97323 -9.374782,-10.48814 -13.95458784,1.77683 7.07784794,-12.15696 -6.0020748,-12.72253 13.7491327,2.97473 10.245102,-9.63979 1.419584,13.99544 12.333895,6.76481 -12.871782,5.67494 z"
       inkscape:transform-center-x="-1.7520158"
       inkscape:transform-center-y="0.28278266"
       style="stroke-width:5;stroke-miterlimit:4;stroke-dasharray:none" />
    <path
       sodipodi:type="star"
       id="path3757-7"
       sodipodi:sides="5"
       sodipodi:cx="44.739056"
       sodipodi:cy="177.65472"
       sodipodi:r1="21.183535"
       sodipodi:r2="10.591767"
       sodipodi:arg1="1.2998495"
       sodipodi:arg2="1.928168"
       inkscape:flatsided="false"
       inkscape:rounded="0"
       inkscape:randomized="0"
       d="m 50.408698,198.06544 -9.374782,-10.48814 -13.954588,1.77683 7.077848,-12.15696 -6.002075,-12.72253 13.749133,2.97473 10.245102,-9.63979 1.419583,13.99544 12.333896,6.76481 -12.871782,5.67494 z"
       inkscape:transform-center-x="-1.7520158"
       inkscape:transform-center-y="0.28278266"
       style="stroke-width:5;stroke-miterlimit:4;stroke-dasharray:none" />
    <path
       sodipodi:type="star"
       id="path3757-9"
       sodipodi:sides="5"
       sodipodi:cx="73.465249"
       sodipodi:cy="134.56543"
       sodipodi:r1="21.183535"
       sodipodi:r2="10.591767"
       sodipodi:arg1="1.2998495"
       sodipodi:arg2="1.928168"
       inkscape:flatsided="false"
       inkscape:rounded="0"
       inkscape:randomized="0"
       d="m 79.134891,154.97614 -9.374783,-10.48814 -13.954588,1.77684 7.077848,-12.15696 -6.002074,-12.72253 13.749133,2.97472 10.245101,-9.63979 1.419584,13.99545 12.333896,6.76481 -12.871782,5.67493 z"
       inkscape:transform-center-x="-1.7520158"
       inkscape:transform-center-y="0.28278266"
       style="stroke-width:5;stroke-miterlimit:4;stroke-dasharray:none" />
    <path
       style="fill:#800000;stroke-width:18.89763804;stroke-miterlimit:4;stroke-dasharray:none"
       d="m 283.09011,200.07717 c -21.26065,-23.94601 -16.14821,-21.74789 -42.45154,-18.25227 -12.3562,1.64209 -23.62067,2.78782 -25.03215,2.54605 -2.13493,-0.36568 -0.42852,-4.10011 10.15116,-22.21548 l 12.7175,-21.77592 -10.82422,-23.01707 c -5.95332,-12.65939 -10.61131,-23.229987 -10.35108,-23.490215 0.26023,-0.260229 11.58621,1.955528 25.16885,4.923903 l 24.69571,5.397042 18.77358,-17.585967 c 10.32547,-9.672283 18.92115,-17.438408 19.1015,-17.258054 0.18036,0.180354 1.45396,11.756073 2.83024,25.72382 l 2.50231,25.395901 23.39697,12.63444 c 22.72263,12.2703 23.27561,12.67675 19.18637,14.10227 -2.31583,0.8073 -13.23942,5.43682 -24.27466,10.28783 l -20.06406,8.82 -1.39442,6.66611 c -0.76694,3.66636 -2.81414,14.38039 -4.54933,23.80896 -1.7352,9.42858 -3.62575,17.65846 -4.20123,18.28865 -0.57548,0.63018 -7.49715,-6.11982 -15.3815,-15 z"
       id="path3780"
       inkscape:connector-curvature="0"
       transform="matrix(0.26458333,0,0,0.26458333,0,97.000002)" />
    <path
       style="fill:#800000;stroke-width:18.89763804;stroke-miterlimit:4;stroke-dasharray:none"
       d="m 174.51869,362.93431 c -21.26066,-23.946 -16.14822,-21.74788 -42.45155,-18.25227 -12.3562,1.6421 -23.64323,2.78782 -25.08229,2.54606 -2.19985,-0.36958 -0.58317,-3.90617 10.15328,-22.21101 l 12.76973,-21.77144 -10.82632,-23.02155 c -5.95448,-12.66185 -10.61342,-23.23446 -10.35319,-23.49469 0.26023,-0.26023 11.58621,1.95553 25.16885,4.9239 l 24.69571,5.39705 18.77358,-17.58597 c 10.32547,-9.67229 18.92115,-17.43841 19.1015,-17.25806 0.18036,0.18036 1.45214,11.73758 2.82619,25.68273 l 2.49827,25.35481 20.10506,10.92334 c 11.05778,6.00784 21.2371,11.69227 22.62071,12.63208 2.15806,1.46585 -0.82401,3.17752 -20.97907,12.04174 l -23.49472,10.333 -1.39406,6.66439 c -0.76673,3.66542 -2.81376,14.37868 -4.54896,23.80725 -1.7352,9.42857 -3.62575,17.65846 -4.20123,18.28864 -0.57548,0.63019 -7.49715,-6.11982 -15.38149,-15 z"
       id="path3782"
       inkscape:connector-curvature="0"
       transform="matrix(0.26458333,0,0,0.26458333,0,97.000002)" />
    <path
       style="fill:#e81527;stroke-width:18.89763804;fill-opacity:1;stroke-miterlimit:4;stroke-dasharray:none"
       d="m 73.560996,541.93282 c -9.26375,-10.29365 -17.904112,-18.71449 -19.200805,-18.71298 -1.296694,0.002 -12.562357,1.31464 -25.034808,2.91806 -12.472451,1.60342 -22.9679768,2.62451 -23.3233902,2.2691 -0.3554135,-0.35541 4.8671762,-10.05547 11.6057552,-21.55568 6.738579,-11.5002 12.251962,-21.78477 12.251962,-22.85459 0,-1.06981 -4.783079,-11.9686 -10.629065,-24.21952 C 13.38466,447.52629 9.0453741,437.4978 9.5877881,437.49168 c 0.5424139,-0.006 12.0291559,2.3605 25.5260919,5.25917 l 24.539884,5.27031 18.661577,-17.55229 c 11.633276,-10.94177 18.890523,-16.82317 19.269476,-15.61632 0.334343,1.06479 1.348979,9.97169 2.254744,19.79312 0.905769,9.82143 2.009079,20.57469 2.451799,23.89613 l 0.80495,6.03899 21.91907,11.81815 c 12.05548,6.49999 21.93439,12.20961 21.95313,12.68806 0.0187,0.47845 -9.96518,5.27612 -22.18647,10.6615 -12.22129,5.38537 -22.74781,10.4582 -23.39227,11.27295 -0.64446,0.81475 -2.953953,11.12422 -5.132202,22.90993 -2.17825,11.78572 -4.386364,22.6185 -4.906922,24.07287 -0.771658,2.15589 -4.05739,-0.81248 -17.78965,-16.07143 z"
       id="path3784"
       inkscape:connector-curvature="0"
       transform="matrix(0.26458333,0,0,0.26458333,0,97.000002)" />
    <path
       style="fill:#e81527;stroke-width:18.89763804;fill-opacity:0.94117647;stroke-miterlimit:4;stroke-dasharray:none"
       d="m 3.2805681,751.43138 c 1.1319837,-1.76785 79.9167459,-137.89285 175.0772419,-302.5 95.16051,-164.60714 174.08251,-300.0865 175.38224,-301.06526 1.29973,-0.97874 2.44852,-2.93832 2.55286,-4.35464 0.10429,-1.4163 18.46741,-34.20057 40.80683,-72.853925 L 437.71685,0.37873071 545.93114,0.369345 c 85.58644,-0.007429 108.22911,0.36400814 108.2852,1.7763256 0.039,0.9821428 22.72758,170.5357094 50.41907,376.7857094 l 50.34817,375 -93.50397,0.36749 c -51.42719,0.20213 -93.75737,0.11414 -94.06707,-0.19562 -0.30972,-0.30971 -4.08209,-33.58222 -8.38306,-73.93891 -4.30096,-40.3567 -8.13671,-74.82551 -8.5239,-76.59739 l -0.70396,-3.22155 -134.3918,0.36441 -134.39178,0.36443 -42.36489,76.7694 -42.36487,76.76941 -97.532932,0.0163 -97.5329325,0.0163 z M 535.574,462.78817 c 0,-4.77572 -28.51993,-267.13862 -29.10239,-267.72107 -0.26976,-0.26976 -1.12437,0.32862 -1.89913,1.32975 -1.32648,1.71406 -147.7409,265.97998 -148.76038,268.50022 -0.26192,0.64744 40.07737,1.17717 89.64285,1.17717 H 535.574 Z"
       id="path3786"
       inkscape:connector-curvature="0"
       transform="matrix(0.26458333,0,0,0.26458333,0,97.000002)" />
    <path
       style="fill:#e81527;stroke-width:18.89763804;fill-opacity:1;stroke-miterlimit:4;stroke-dasharray:none"
       d="m 172.78802,360.43603 c -8.87669,-9.48934 -17.50621,-17.57134 -19.17673,-17.96002 -1.67051,-0.38867 -12.68015,0.51009 -24.46587,1.99724 -11.78571,1.48715 -21.71708,2.4351 -22.0697,2.10656 -0.84169,-0.78422 6.53876,-15.22733 15.76101,-30.84342 l 7.37063,-12.4807 -10.29976,-22.27432 c -5.66487,-12.25087 -9.95615,-22.61792 -9.53619,-23.03788 0.41996,-0.41996 11.48516,1.53675 24.58934,4.34824 l 23.82576,5.11181 17.086,-16.02179 c 9.3973,-8.81199 17.88437,-16.47346 18.86016,-17.0255 1.34637,-0.76168 2.35646,4.92184 4.18916,23.57143 1.85221,18.84813 2.94831,24.9737 4.70347,26.28542 1.25866,0.94065 10.90138,6.37257 21.42827,12.07093 10.52689,5.69836 18.91558,11.03331 18.64154,11.85544 -0.27405,0.82213 -10.0012,5.72649 -21.61591,10.89856 -11.61471,5.17208 -21.59564,10.31751 -22.17986,11.43428 -0.58421,1.11678 -2.85205,11.35193 -5.03963,22.74479 -2.18758,11.39285 -4.41726,21.55983 -4.95485,22.59328 -0.66229,1.2732 -6.18082,-3.68354 -17.11684,-15.37435 z"
       id="path3788"
       inkscape:connector-curvature="0"
       transform="matrix(0.26458333,0,0,0.26458333,0,97.000002)" />
    <path
       style="fill:#e81527;stroke-width:18.89763804;fill-opacity:1;stroke-miterlimit:4;stroke-dasharray:none"
       d="m 281.93422,198.1767 c -8.49694,-9.11048 -16.66124,-17.2133 -18.14288,-18.00625 -2.36087,-1.2635 -26.21891,0.75806 -44.28877,3.75272 -2.5676,0.42552 -3.92857,0.0217 -3.92857,-1.1657 0,-0.99923 5.21074,-10.96111 11.57943,-22.13751 l 11.57942,-20.32074 -10.27679,-22.22466 c -5.65223,-12.22355 -9.93318,-22.568251 -9.51322,-22.988212 0.41996,-0.419962 11.48516,1.536748 24.58933,4.348244 l 23.82577,5.111808 17.086,-16.021794 c 9.3973,-8.811987 17.88437,-16.47346 18.86016,-17.025495 1.34608,-0.761522 2.36037,4.918051 4.20369,23.538807 1.33624,13.498382 2.89421,25.003622 3.46215,25.567202 0.56795,0.56358 10.19317,6.04255 21.38939,12.17548 11.19622,6.13293 20.51765,11.71543 20.71429,12.40555 0.19663,0.69012 -9.28534,5.41185 -21.07105,10.49274 -11.78572,5.08088 -21.99113,9.77164 -22.67869,10.42392 -0.68756,0.65227 -3.3339,11.54115 -5.88074,24.19753 -2.54685,12.65637 -4.95223,23.33317 -5.34529,23.72623 -0.39306,0.39307 -7.66669,-6.73938 -16.16363,-15.84987 z"
       id="path3790"
       inkscape:connector-curvature="0"
       transform="matrix(0.26458333,0,0,0.26458333,0,97.000002)" />
    <path
       style="color:#000000;font-style:normal;font-variant:normal;font-weight:normal;font-stretch:normal;font-size:medium;line-height:normal;font-family:sans-serif;font-variant-ligatures:normal;font-variant-position:normal;font-variant-caps:normal;font-variant-numeric:normal;font-variant-alternates:normal;font-feature-settings:normal;text-indent:0;text-align:start;text-decoration:none;text-decoration-line:none;text-decoration-style:solid;text-decoration-color:#000000;letter-spacing:normal;word-spacing:normal;text-transform:none;writing-mode:lr-tb;direction:ltr;text-orientation:mixed;dominant-baseline:auto;baseline-shift:baseline;text-anchor:start;white-space:normal;shape-padding:0;clip-rule:nonzero;display:inline;overflow:visible;visibility:visible;opacity:1;isolation:auto;mix-blend-mode:normal;color-interpolation:sRGB;color-interpolation-filters:linearRGB;solid-color:#000000;solid-opacity:1;vector-effect:none;fill-opacity:1;fill-rule:nonzero;stroke:none;stroke-width:5;stroke-linecap:butt;stroke-linejoin:miter;stroke-miterlimit:4;stroke-dasharray:none;stroke-dashoffset:0;stroke-opacity:1;color-rendering:auto;image-rendering:auto;shape-rendering:auto;text-rendering:auto;enable-background:accumulate"
       d="m 115.70353,96.900783 -3.06183,5.294247 c -5.05269,8.73611 -9.63703,16.72931 -12.986802,22.63015 -1.674889,2.95041 -3.041186,5.37768 -4.003373,7.11377 -0.481094,0.86805 -0.861092,1.56331 -1.128614,2.06551 -0.133761,0.2511 -0.239208,0.45357 -0.315744,0.60668 -0.07653,0.15312 -0.12115,0.2436 -0.146243,0.32401 -0.06923,0.22185 -0.162073,0.44705 -0.252182,0.62374 -0.09011,0.17669 -0.202076,0.31162 -0.205671,0.31419 -0.05264,0.0377 -0.07912,0.0728 -0.120923,0.12506 -0.0418,0.0522 -0.0912,0.1195 -0.151413,0.20619 -0.120425,0.17337 -0.284117,0.42366 -0.502293,0.77049 -0.436353,0.69367 -1.090607,1.77242 -2.044321,3.37447 -1.907427,3.2041 -5.010687,8.50076 -9.944611,16.98294 -9.867847,16.96438 -27.05939,46.67008 -56.655973,97.8514 C 13.00361,274.51705 3.0279721,291.74456 2.0241658,293.45261 l -1.99987788,3.40289 26.12036908,-5.2e-4 25.901779,-0.001 11.259777,-20.41322 11.151775,-20.21789 35.450032,-0.0961 35.40817,-0.0961 0.15297,0.70332 c 0.007,0.0304 0.036,0.22692 0.0734,0.52141 0.0374,0.2945 0.0868,0.70173 0.14624,1.2082 0.11887,1.01293 0.2787,2.42279 0.46819,4.12688 0.37898,3.40818 0.8764,7.9924 1.40043,12.92944 0.52408,4.93748 1.0257,9.60714 1.41232,13.15269 0.38661,3.54555 0.65612,5.95257 0.7214,6.41408 l 0.25011,1.76888 h 24.87859 24.90339 v -1.11414 c 0,-0.0561 -0.006,-0.0892 -0.016,-0.18087 -0.0102,-0.0917 -0.0251,-0.21939 -0.045,-0.38292 -0.0397,-0.32708 -0.099,-0.7973 -0.17622,-1.40353 -0.15444,-1.21248 -0.38188,-2.96941 -0.67489,-5.21106 -0.58603,-4.48329 -1.43365,-10.90609 -2.47944,-18.79316 -2.09158,-15.77415 -4.97647,-37.40405 -8.14989,-61.08258 -7.48255,-55.83118 -11.19908,-83.56487 -13.07827,-97.37442 -0.93959,-6.90477 -1.41965,-10.32779 -1.68207,-12.044739 -0.1312,-0.858473 -0.20718,-1.288608 -0.262,-1.524455 -0.0274,-0.117924 -0.0485,-0.188044 -0.077,-0.24753 -0.0285,-0.05949 -0.0762,-0.10777 -0.0863,-0.117823 -0.0729,-0.07289 -0.0858,-0.05183 -0.10439,-0.05633 -0.0186,-0.0045 -0.0344,-0.0068 -0.0522,-0.0093 -0.0357,-0.0049 -0.0787,-0.0088 -0.13333,-0.01292 -0.10928,-0.0083 -0.26288,-0.0162 -0.46147,-0.02429 -0.39717,-0.01617 -0.97231,-0.0325 -1.7079,-0.04857 -1.47119,-0.03215 -3.58268,-0.06412 -6.17844,-0.09354 -5.19151,-0.05884 -12.32013,-0.108694 -20.13365,-0.135392 z m 0.21808,0.378788 28.30163,0.09663 c 7.8127,0.0267 14.94105,0.07657 20.13107,0.135393 2.595,0.02941 4.7056,0.06092 6.1743,0.09302 0.73435,0.01605 1.30809,0.03208 1.70067,0.04806 0.19629,0.008 0.34768,0.01613 0.44855,0.02377 0.0324,0.0025 0.0497,0.0045 0.0708,0.0067 0.008,0.02088 0.0218,0.05534 0.0429,0.146245 0.0491,0.211457 0.12557,0.640098 0.25631,1.495516 0.26148,1.710835 0.74203,5.134795 1.68155,12.039055 1.87905,13.80853 5.59521,41.5422 13.07776,97.37339 3.1734,23.67838 6.05834,45.30818 8.14989,61.08205 1.04577,7.88694 1.89346,14.3098 2.47943,18.79266 0.29299,2.24143 0.52056,3.99782 0.6749,5.2095 0.0772,0.60584 0.1362,1.07581 0.1757,1.40146 0.0198,0.16283 0.0345,0.28951 0.0444,0.37879 0.01,0.0893 0.0139,0.16378 0.0139,0.13953 v 0.73639 H 174.81974 150.2693 l -0.20412,-1.44384 c -0.0597,-0.42202 -0.33329,-2.85766 -0.71986,-6.40271 -0.38656,-3.54505 -0.88827,-8.21399 -1.41231,-13.15114 -0.52409,-4.93758 -1.02135,-9.52242 -1.40043,-12.93151 -0.18955,-1.70454 -0.34968,-3.11466 -0.46871,-4.12895 -0.0595,-0.50714 -0.10856,-0.91519 -0.14624,-1.21181 -0.0377,-0.29662 -0.0602,-0.46764 -0.0791,-0.55449 l -0.21807,-1.00148 -35.71359,0.0972 -35.672234,0.0966 -11.259781,20.41271 -11.151772,20.21789 -25.678536,5.1e-4 -25.45994429,10e-4 1.66553139,-2.83342 C 3.3622969,291.92225 13.330657,274.7063 24.510648,255.37276 54.107206,204.19149 71.299262,174.48595 81.16662,157.5224 c 4.93368,-8.48176 8.036099,-13.77825 9.942031,-16.97984 0.952963,-1.60079 1.60714,-2.67779 2.040183,-3.3662 0.216522,-0.3442 0.377992,-0.59172 0.492477,-0.75654 0.05724,-0.0824 0.102764,-0.14409 0.135909,-0.18552 0.03315,-0.0414 0.06123,-0.0647 0.04599,-0.0537 0.141528,-0.10136 0.221202,-0.25154 0.322461,-0.4501 0.101259,-0.19856 0.199951,-0.43908 0.275952,-0.68264 0.0034,-0.0109 0.04948,-0.11908 0.123508,-0.26717 0.07402,-0.14808 0.178742,-0.34899 0.311608,-0.59841 0.265731,-0.49884 0.644985,-1.19279 1.125513,-2.05983 0.961057,-1.73406 2.326791,-4.16091 4.001305,-7.11067 3.349033,-5.89953 7.932983,-13.89166 12.985253,-22.62704 z m 18.01853,51.113159 c -0.062,0.004 -0.10514,0.0268 -0.14107,0.0501 -0.0719,0.0467 -0.12625,0.10721 -0.19586,0.19327 -0.13921,0.17211 -0.32377,0.44961 -0.58859,0.88211 -0.52965,0.865 -1.37348,2.34442 -2.72128,4.74803 -2.09659,3.73897 -10.82463,19.5022 -19.11925,34.50797 -4.14731,7.50289 -8.1864,14.81597 -11.232904,20.34088 -1.523252,2.76246 -2.79825,5.07772 -3.71502,6.74636 -0.916768,1.66864 -1.467969,2.67633 -1.566828,2.87011 L 93.755,220.50461 h 24.12876 24.00939 v -1.03043 c 0,-0.0631 -0.008,-0.16033 -0.0227,-0.33022 -0.0144,-0.16987 -0.0353,-0.40178 -0.0631,-0.69143 -0.0555,-0.57928 -0.13726,-1.39067 -0.24081,-2.4014 -0.2071,-2.02145 -0.50268,-4.83923 -0.85834,-8.18555 -0.71134,-6.69262 -1.6615,-15.49835 -2.61638,-24.26931 -0.95489,-8.77097 -1.91458,-17.5073 -2.64532,-24.06055 -0.36537,-3.27663 -0.67337,-6.00762 -0.89503,-7.92458 -0.11084,-0.95848 -0.20005,-1.71342 -0.26407,-2.23191 -0.032,-0.25924 -0.0579,-0.45903 -0.077,-0.59686 -0.01,-0.0689 -0.0172,-0.12213 -0.0238,-0.16123 -0.003,-0.0196 -0.006,-0.0353 -0.01,-0.0506 -0.002,-0.008 -0.003,-0.0146 -0.007,-0.0258 -0.003,-0.0112 -0.0485,-0.0826 -0.0491,-0.0832 -0.0421,-0.042 -0.11889,-0.0725 -0.18087,-0.0687 z m -0.0899,0.5519 c 0.0172,0.12864 0.0361,0.27111 0.062,0.48111 0.0638,0.51658 0.15277,1.27082 0.26355,2.22881 0.22155,1.91597 0.5297,4.64667 0.89503,7.92303 0.73068,6.55271 1.69046,15.28879 2.64532,24.05951 0.95486,8.77072 1.90458,17.57618 2.61586,24.26829 0.35564,3.34605 0.65185,6.16395 0.85886,8.18451 0.10351,1.01028 0.18444,1.82108 0.23978,2.39882 0.0277,0.28887 0.0488,0.51931 0.063,0.68678 0.0142,0.16746 0.0212,0.28243 0.0212,0.29869 v 0.65216 H 117.88376 94.372532 l 0.623737,-1.22267 c 0.07964,-0.15611 0.644548,-1.19197 1.561145,-2.86029 0.916596,-1.66832 2.191818,-3.98348 3.715016,-6.74584 3.0464,-5.52472 7.08513,-12.83756 11.23239,-20.34036 8.29452,-15.00561 17.02441,-30.7719 19.11821,-34.50591 1.34725,-2.40261 2.1913,-3.88189 2.71405,-4.73562 0.2394,-0.39099 0.39666,-0.61988 0.51314,-0.77102 z"
       id="path3792"
       inkscape:connector-curvature="0" />
    <path
       style="color:#000000;font-style:normal;font-variant:normal;font-weight:normal;font-stretch:normal;font-size:medium;line-height:normal;font-family:sans-serif;font-variant-ligatures:normal;font-variant-position:normal;font-variant-caps:normal;font-variant-numeric:normal;font-variant-alternates:normal;font-feature-settings:normal;text-indent:0;text-align:start;text-decoration:none;text-decoration-line:none;text-decoration-style:solid;text-decoration-color:#000000;letter-spacing:normal;word-spacing:normal;text-transform:none;writing-mode:lr-tb;direction:ltr;text-orientation:mixed;dominant-baseline:auto;baseline-shift:baseline;text-anchor:start;white-space:normal;shape-padding:0;clip-rule:nonzero;display:inline;overflow:visible;visibility:visible;opacity:1;isolation:auto;mix-blend-mode:normal;color-interpolation:sRGB;color-interpolation-filters:linearRGB;solid-color:#000000;solid-opacity:1;vector-effect:none;fill-opacity:1;fill-rule:nonzero;stroke:none;stroke-width:5;stroke-linecap:butt;stroke-linejoin:miter;stroke-miterlimit:4;stroke-dasharray:none;stroke-dashoffset:0;stroke-opacity:1;color-rendering:auto;image-rendering:auto;shape-rendering:auto;text-rendering:auto;enable-background:accumulate"
       d="m 80.370803,116.03398 c -0.05551,0.008 -0.100671,0.0259 -0.150894,0.0486 -0.100447,0.0452 -0.216832,0.11466 -0.359151,0.20929 -0.284639,0.18925 -0.666155,0.47805 -1.123447,0.84749 -0.914585,0.73888 -2.129708,1.79977 -3.429246,3.00757 l -4.644163,4.31653 -6.183084,-1.29346 c -1.727002,-0.36122 -3.316695,-0.68945 -4.487064,-0.92759 -0.585187,-0.11907 -1.065501,-0.21583 -1.406117,-0.28267 -0.170307,-0.0334 -0.305814,-0.0592 -0.402559,-0.077 -0.04837,-0.009 -0.08723,-0.0158 -0.116789,-0.0207 -0.02956,-0.005 -0.02637,-0.009 -0.08061,-0.009 -0.06507,0 -0.154318,0.0418 -0.195339,0.10077 -0.04102,0.0589 -0.04731,0.11306 -0.04961,0.16123 -0.0046,0.0963 0.01522,0.19151 0.04961,0.32039 0.06878,0.25777 0.207516,0.63704 0.432017,1.18649 0.448998,1.0989 1.240277,2.86876 2.483051,5.57641 l 2.254126,4.91081 -3.068029,5.42137 c -0.858155,1.51633 -1.611299,2.92163 -2.134754,3.9672 -0.261728,0.52279 -0.465846,0.95491 -0.598413,1.27021 -0.06628,0.15765 -0.114824,0.28506 -0.144693,0.38705 -0.01494,0.051 -0.02581,0.0948 -0.03049,0.14211 -0.0047,0.0473 -0.02768,0.11496 0.06253,0.20516 0.05745,0.0575 0.09623,0.0613 0.134358,0.0713 0.03813,0.01 0.0773,0.0161 0.121957,0.0212 0.08931,0.0103 0.200541,0.0152 0.337447,0.0171 0.273814,0.004 0.646292,-0.007 1.095023,-0.0295 0.897466,-0.0459 2.098193,-0.14207 3.389458,-0.2775 4.20752,-0.44132 6.01632,-0.73739 7.311181,-0.32298 0.647432,0.20721 1.188944,0.5901 1.877922,1.25108 0.688978,0.66099 1.516933,1.59542 2.716112,2.87373 1.145701,1.22131 2.219854,2.33151 3.028757,3.1378 0.404453,0.40314 0.742243,0.73007 0.991671,0.95859 0.124712,0.11426 0.226862,0.20393 0.307475,0.2682 0.04031,0.0321 0.0748,0.0576 0.108519,0.0791 0.03372,0.0214 0.04362,0.0527 0.152445,0.0527 0.06872,0 0.154766,-0.0133 0.233061,-0.0594 0.0783,-0.0461 0.141507,-0.11697 0.195855,-0.20619 0.108696,-0.17845 0.201094,-0.4445 0.325043,-0.90434 0.247904,-0.91966 0.605042,-2.60999 1.255221,-5.74848 0.309755,-1.49522 0.625168,-2.8859 0.88315,-3.91914 0.128992,-0.51662 0.243737,-0.94417 0.33538,-1.24851 0.04582,-0.15216 0.08602,-0.27368 0.117825,-0.35708 0.0159,-0.0417 0.03028,-0.074 0.03979,-0.093 0.0095,-0.019 0.02245,-0.0269 -0.0052,-0.002 -0.01674,0.0153 0.04039,-0.0275 0.116787,-0.0698 0.07639,-0.0423 0.18297,-0.0977 0.314709,-0.16382 0.26348,-0.13222 0.627787,-0.30739 1.065051,-0.51159 0.87453,-0.4084 2.041591,-0.93466 3.287657,-1.4795 3.343272,-1.46184 5.039206,-2.20526 5.852355,-2.6758 0.406575,-0.23528 0.625256,-0.39147 0.679027,-0.64234 0.02689,-0.12544 -0.01613,-0.24977 -0.07545,-0.33848 -0.05932,-0.0887 -0.133437,-0.15937 -0.212391,-0.23461 -0.108292,-0.1032 -0.304324,-0.2308 -0.618567,-0.42995 -0.314243,-0.19916 -0.732338,-0.45336 -1.225764,-0.74569 -0.986857,-0.58467 -2.27497,-1.32184 -3.627687,-2.07171 -1.350523,-0.74865 -2.606413,-1.45656 -3.540868,-1.99368 -0.467228,-0.26856 -0.854221,-0.49457 -1.131713,-0.66094 -0.138747,-0.0832 -0.249878,-0.15197 -0.329181,-0.20257 -0.06905,-0.0441 -0.105704,-0.0734 -0.104386,-0.0698 -0.007,-0.0196 -0.01685,-0.0515 -0.02791,-0.0946 -0.02295,-0.0894 -0.05076,-0.22131 -0.08165,-0.38706 -0.06178,-0.33149 -0.135951,-0.79984 -0.21704,-1.36839 -0.162179,-1.13709 -0.35202,-2.67494 -0.530201,-4.33617 -0.178618,-1.66533 -0.374999,-3.21645 -0.54777,-4.37596 -0.08639,-0.57976 -0.167161,-1.06108 -0.237193,-1.41283 -0.03502,-0.17588 -0.06729,-0.31893 -0.09767,-0.42892 -0.01519,-0.055 -0.02951,-0.10146 -0.04548,-0.14262 -0.01597,-0.0412 -0.02533,-0.0749 -0.0708,-0.12454 -0.07307,-0.0798 -0.167728,-0.0782 -0.223243,-0.0698 z m -0.03204,0.41496 c 0.0027,0.009 0.0045,0.0127 0.0072,0.0227 0.02614,0.0946 0.0575,0.23143 0.09147,0.40204 0.06794,0.34123 0.147738,0.81866 0.23358,1.39475 0.17168,1.15219 0.367564,2.69959 0.545703,4.36046 0.178578,1.66496 0.369189,3.20569 0.532267,4.34909 0.08154,0.5717 0.156091,1.0435 0.219623,1.38441 0.03177,0.17045 0.06064,0.30786 0.08733,0.41186 0.01335,0.052 0.02569,0.0952 0.03979,0.13384 0.0141,0.0386 0.01418,0.0681 0.0739,0.12661 0.05655,0.0554 0.0964,0.0748 0.180867,0.12867 0.08447,0.0539 0.197988,0.12351 0.338481,0.20774 0.280988,0.16846 0.669476,0.3953 1.137915,0.66456 0.936882,0.53851 2.194031,1.24679 3.546038,1.99626 1.349809,0.74826 2.635205,1.48436 3.617865,2.06654 0.491332,0.29109 0.90696,0.54418 1.215949,0.74001 0.308985,0.19583 0.52561,0.35102 0.56017,0.38395 0.07539,0.0719 0.133001,0.13193 0.159165,0.17105 0.02616,0.0391 0.02219,0.0396 0.02015,0.0491 -0.0041,0.019 -0.117107,0.1737 -0.499195,0.3948 -0.764175,0.44221 -2.471089,1.19496 -5.814115,2.65669 -1.24858,0.54594 -2.417427,1.07338 -3.295923,1.48363 -0.439248,0.20513 -0.805918,0.38076 -1.07487,0.51573 -0.134474,0.0675 -0.244178,0.12455 -0.328144,0.17105 -0.08397,0.0465 -0.131117,0.0688 -0.189137,0.12196 -0.04825,0.0442 -0.05968,0.0743 -0.07803,0.1111 -0.01835,0.0367 -0.03557,0.0781 -0.05426,0.12712 -0.03738,0.098 -0.07926,0.22571 -0.126606,0.38293 -0.09469,0.31444 -0.210158,0.74591 -0.340032,1.26607 -0.259749,1.04031 -0.576116,2.43407 -0.886766,3.93361 -0.650063,3.13792 -1.008748,4.83159 -1.250053,5.72678 -0.120653,0.4476 -0.216274,0.69682 -0.283187,0.80667 -0.03346,0.0549 -0.05561,0.0712 -0.0646,0.0765 -0.0018,0.001 -0.0067,7.5e-4 -0.0083,0.002 -0.01528,-0.0105 -0.03192,-0.0223 -0.05839,-0.0434 -0.06829,-0.0544 -0.166664,-0.14012 -0.287838,-0.25114 -0.24235,-0.22205 -0.578048,-0.5468 -0.980302,-0.94775 -0.804506,-0.8019 -1.876198,-1.90979 -3.019454,-3.12849 -1.195616,-1.27452 -2.021965,-2.20886 -2.730067,-2.8882 -0.708099,-0.67933 -1.306078,-1.10792 -2.024681,-1.3379 -1.437204,-0.45997 -3.265281,-0.13361 -7.465695,0.30696 -1.285536,0.13483 -2.481575,0.23055 -3.369302,0.27595 -0.443865,0.0227 -0.810929,0.0325 -1.070218,0.0289 -0.10957,-0.002 -0.18773,-0.007 -0.253733,-0.0129 0.02429,-0.0763 0.05929,-0.17336 0.115239,-0.30644 0.126606,-0.30113 0.328491,-0.72948 0.588076,-1.24799 0.519174,-1.03702 1.269921,-2.43845 2.125454,-3.95014 l 3.16363,-5.58932 -2.334741,-5.08652 c -1.242102,-2.70618 -2.03295,-4.47499 -2.476852,-5.56142 -0.221948,-0.54321 -0.357431,-0.91816 -0.417028,-1.14153 -0.01137,-0.0426 -0.0087,-0.0469 -0.01447,-0.078 0.09283,0.0172 0.213571,0.0402 0.37207,0.0713 0.339048,0.0665 0.818846,0.16318 1.403533,0.28215 1.169373,0.23794 2.758561,0.56597 4.484997,0.92707 l 6.374804,1.33326 4.787305,-4.44986 c 1.294302,-1.20293 2.505302,-2.25943 3.409611,-2.99 0.452154,-0.36529 0.828593,-0.64916 1.095023,-0.82631 0.117195,-0.0779 0.202864,-0.12557 0.268719,-0.15813 z"
       id="path3794"
       inkscape:connector-curvature="0" />
    <path
       style="color:#000000;font-style:normal;font-variant:normal;font-weight:normal;font-stretch:normal;font-size:medium;line-height:normal;font-family:sans-serif;font-variant-ligatures:normal;font-variant-position:normal;font-variant-caps:normal;font-variant-numeric:normal;font-variant-alternates:normal;font-feature-settings:normal;text-indent:0;text-align:start;text-decoration:none;text-decoration-line:none;text-decoration-style:solid;text-decoration-color:#000000;letter-spacing:normal;word-spacing:normal;text-transform:none;writing-mode:lr-tb;direction:ltr;text-orientation:mixed;dominant-baseline:auto;baseline-shift:baseline;text-anchor:start;white-space:normal;shape-padding:0;clip-rule:nonzero;display:inline;overflow:visible;visibility:visible;opacity:1;isolation:auto;mix-blend-mode:normal;color-interpolation:sRGB;color-interpolation-filters:linearRGB;solid-color:#000000;solid-opacity:1;vector-effect:none;fill-opacity:1;fill-rule:nonzero;stroke:none;stroke-width:5;stroke-linecap:butt;stroke-linejoin:miter;stroke-miterlimit:4;stroke-dasharray:none;stroke-dashoffset:0;stroke-opacity:1;color-rendering:auto;image-rendering:auto;shape-rendering:auto;text-rendering:auto;enable-background:accumulate"
       d="m 51.643359,159.12334 c -0.0555,0.008 -0.100203,0.0259 -0.150379,0.0486 -0.100348,0.0453 -0.216921,0.11467 -0.359151,0.20929 -0.284458,0.18924 -0.665765,0.47806 -1.122928,0.84749 -0.914326,0.73887 -2.129198,1.79978 -3.428733,3.00757 l -4.644676,4.31653 -6.183085,-1.29346 c -1.727004,-0.36122 -3.316694,-0.68945 -4.487066,-0.92759 -0.585184,-0.11907 -1.0655,-0.21583 -1.406114,-0.28267 -0.170307,-0.0334 -0.305816,-0.0592 -0.402561,-0.077 -0.04837,-0.009 -0.08671,-0.0158 -0.116272,-0.0207 -0.02956,-0.005 -0.02688,-0.009 -0.08113,-0.009 -0.06507,0 -0.1538,0.0418 -0.194821,0.10077 -0.04102,0.0589 -0.04783,0.11305 -0.05012,0.16123 -0.0046,0.0963 0.01522,0.1915 0.04961,0.32039 0.06879,0.25779 0.207478,0.63697 0.432014,1.18649 0.449072,1.09906 1.24105,2.86922 2.484086,5.57744 l 2.254126,4.91184 -2.815331,4.932 c -1.861421,3.26116 -2.774508,4.82538 -3.044259,5.65082 -0.06744,0.20636 -0.09884,0.37095 -0.07545,0.52503 0.0234,0.15408 0.12909,0.29002 0.257349,0.35347 0.256516,0.1269 0.560734,0.093 0.954982,0.093 0.751078,0 3.337761,-0.25473 5.828067,-0.56534 1.242639,-0.155 2.436236,-0.29644 3.357417,-0.39946 0.460592,-0.0515 0.852773,-0.0939 1.148768,-0.12299 0.295992,-0.0291 0.505997,-0.045 0.560173,-0.0455 -0.0672,6.1e-4 0.01472,0.008 0.101801,0.0641 0.08708,0.0556 0.207179,0.14349 0.351401,0.25838 0.288444,0.22978 0.675587,0.56745 1.129647,0.98496 0.908118,0.83501 2.08626,1.99031 3.311943,3.26181 1.731605,1.79635 2.86577,2.92393 3.610115,3.55689 0.372171,0.31648 0.642453,0.51057 0.869714,0.60668 0.113628,0.0481 0.221679,0.0749 0.334862,0.0558 0.113184,-0.0191 0.215538,-0.10044 0.267169,-0.19327 0.07426,-0.1335 0.129278,-0.33455 0.219106,-0.66507 0.08983,-0.33053 0.198139,-0.76789 0.318328,-1.28313 0.240377,-1.03047 0.527757,-2.37134 0.80512,-3.77651 0.276878,-1.40274 0.54805,-2.74506 0.761193,-3.77703 0.213143,-1.03197 0.375557,-1.77614 0.412376,-1.90531 -0.01634,0.0573 0.014,-0.0162 0.09457,-0.0842 0.08057,-0.0681 0.202878,-0.1575 0.359151,-0.26149 0.312545,-0.20797 0.760865,-0.47515 1.307931,-0.78031 1.094131,-0.61032 2.584778,-1.37313 4.202843,-2.13837 1.718926,-0.81294 3.01023,-1.38014 3.880384,-1.84433 0.435075,-0.2321 0.765344,-0.4373 0.997355,-0.64699 0.232008,-0.2097 0.377161,-0.44496 0.363286,-0.70487 -0.01387,-0.25991 -0.173945,-0.48907 -0.42323,-0.71882 -0.249288,-0.22974 -0.600586,-0.47024 -1.061434,-0.74931 -0.921698,-0.55812 -2.281587,-1.26715 -4.097941,-2.26911 -1.312458,-0.72399 -2.526374,-1.43498 -3.421497,-1.99523 -0.447563,-0.28012 -0.815691,-0.52269 -1.074353,-0.70848 -0.129331,-0.0929 -0.23149,-0.17228 -0.299723,-0.23151 -0.06824,-0.0592 -0.101264,-0.1248 -0.08113,-0.0724 0.0013,0.003 -0.0198,-0.0745 -0.03928,-0.1788 -0.01947,-0.10425 -0.04319,-0.24622 -0.06976,-0.41961 -0.05316,-0.34679 -0.118827,-0.82043 -0.192239,-1.38545 -0.146822,-1.13002 -0.325003,-2.62613 -0.498676,-4.21369 -0.174048,-1.59101 -0.365836,-3.07417 -0.535368,-4.18476 -0.08476,-0.55529 -0.163984,-1.01681 -0.233061,-1.35496 -0.03454,-0.16907 -0.06648,-0.30694 -0.09663,-0.41341 -0.01508,-0.0532 -0.02954,-0.0988 -0.04548,-0.13901 -0.01593,-0.0402 -0.02612,-0.073 -0.06976,-0.12092 -0.07299,-0.0801 -0.167738,-0.0787 -0.223242,-0.0703 z m -0.03101,0.41445 c 0.0023,0.008 0.0039,0.0103 0.0062,0.0186 0.02575,0.0909 0.05648,0.22234 0.08992,0.38602 0.06687,0.32736 0.145256,0.78536 0.229444,1.33687 0.168378,1.10303 0.359759,2.58237 0.533302,4.16874 0.173919,1.58981 0.352428,3.08736 0.499711,4.22093 0.07364,0.56678 0.139366,1.04256 0.19327,1.39423 0.02695,0.17584 0.0511,0.32048 0.07183,0.4315 0.02073,0.11102 0.0319,0.17725 0.05788,0.24495 0.04479,0.11671 0.103531,0.15066 0.186552,0.22272 0.08302,0.0721 0.19164,0.15576 0.326594,0.2527 0.269912,0.19387 0.642779,0.43919 1.094507,0.72192 0.903459,0.56546 2.121278,1.27863 3.439067,2.00556 1.820143,1.00404 3.183062,1.7157 4.085021,2.26188 0.45098,0.27309 0.786773,0.50595 1.001491,0.70383 0.214717,0.19789 0.295894,0.35049 0.301789,0.46095 0.0059,0.11047 -0.0504,0.23394 -0.23926,0.40463 -0.188863,0.1707 -0.499065,0.36767 -0.921909,0.59325 -0.845688,0.45114 -2.140789,1.02092 -3.864364,1.83606 -1.624714,0.76838 -3.120427,1.53408 -4.225065,2.15026 -0.552318,0.30809 -1.006441,0.57834 -1.333252,0.79581 -0.163404,0.10874 -0.29455,0.20401 -0.393774,0.28784 -0.09922,0.0838 -0.174789,0.12956 -0.214458,0.26872 -0.05646,0.19809 -0.205647,0.89925 -0.419094,1.9327 -0.213448,1.03344 -0.484119,2.37639 -0.761193,3.78013 -0.276598,1.40129 -0.563489,2.73934 -0.802537,3.76411 -0.119523,0.51238 -0.22737,0.94695 -0.315225,1.27021 -0.08785,0.32325 -0.172021,0.55792 -0.184486,0.58032 -0.0095,0.017 0.0059,0.003 0,0.004 -0.0059,0.001 -0.0489,4.6e-4 -0.124539,-0.0315 -0.151291,-0.064 -0.412189,-0.24021 -0.772046,-0.54622 -0.719717,-0.61202 -1.854087,-1.73724 -3.583244,-3.53105 -1.23026,-1.27625 -2.411868,-2.43549 -3.327961,-3.27783 -0.45805,-0.42118 -0.849194,-0.76306 -1.149803,-1.00253 -0.150304,-0.11973 -0.277397,-0.21394 -0.383439,-0.28163 -0.106043,-0.0677 -0.163349,-0.1243 -0.308507,-0.12299 -0.10174,9.1e-4 -0.295016,0.0182 -0.593762,0.0475 -0.298746,0.0294 -0.692788,0.0714 -1.154451,0.12299 -0.923332,0.10326 -2.117969,0.2448 -3.362071,0.39998 -2.483173,0.30972 -5.120569,0.56223 -5.78104,0.56224 -0.401511,0 -0.701564,-0.0112 -0.787551,-0.0538 -0.04299,-0.0213 -0.043,-0.0176 -0.05116,-0.0713 -0.0082,-0.0537 0.0027,-0.1725 0.06098,-0.35088 0.233185,-0.71355 1.152027,-2.31882 3.013771,-5.58054 l 2.911448,-5.10098 -2.335773,-5.08807 c -1.242367,-2.70675 -2.033395,-4.47587 -2.477368,-5.56244 -0.221988,-0.54329 -0.356907,-0.91815 -0.416512,-1.14154 -0.01136,-0.0426 -0.0082,-0.0469 -0.01395,-0.078 0.09277,0.0172 0.212964,0.0403 0.371039,0.0713 0.339045,0.0665 0.818843,0.16267 1.40353,0.28164 1.169376,0.23794 2.758561,0.56649 4.484999,0.92759 l 6.374805,1.33326 4.787821,-4.44986 c 1.294307,-1.20294 2.505027,-2.25942 3.409095,-2.99 0.452033,-0.36529 0.828228,-0.64967 1.094504,-0.82682 0.117528,-0.0782 0.203441,-0.12564 0.269235,-0.15813 z"
       id="path3796"
       inkscape:connector-curvature="0" />
    <path
       style="color:#000000;font-style:normal;font-variant:normal;font-weight:normal;font-stretch:normal;font-size:medium;line-height:normal;font-family:sans-serif;font-variant-ligatures:normal;font-variant-position:normal;font-variant-caps:normal;font-variant-numeric:normal;font-variant-alternates:normal;font-feature-settings:normal;text-indent:0;text-align:start;text-decoration:none;text-decoration-line:none;text-decoration-style:solid;text-decoration-color:#000000;letter-spacing:normal;word-spacing:normal;text-transform:none;writing-mode:lr-tb;direction:ltr;text-orientation:mixed;dominant-baseline:auto;baseline-shift:baseline;text-anchor:start;white-space:normal;shape-padding:0;clip-rule:nonzero;display:inline;overflow:visible;visibility:visible;opacity:1;isolation:auto;mix-blend-mode:normal;color-interpolation:sRGB;color-interpolation-filters:linearRGB;solid-color:#000000;solid-opacity:1;vector-effect:none;fill-opacity:1;fill-rule:nonzero;stroke:none;stroke-width:5;stroke-linecap:butt;stroke-linejoin:miter;stroke-miterlimit:4;stroke-dasharray:none;stroke-dashoffset:0;stroke-opacity:1;color-rendering:auto;image-rendering:auto;shape-rendering:auto;text-rendering:auto;enable-background:accumulate"
       d="m 25.337471,206.89717 c -0.108891,0 -0.113843,0.0283 -0.147794,0.0481 -0.03395,0.0197 -0.06985,0.0438 -0.112655,0.0744 -0.08562,0.0611 -0.196301,0.14703 -0.332279,0.25683 -0.271957,0.21961 -0.643761,0.53426 -1.090373,0.92243 -0.893225,0.77633 -2.084957,1.84577 -3.362069,3.02204 l -4.568196,4.20749 -6.1138389,-1.29139 c -1.7098756,-0.36112 -3.2921273,-0.66109 -4.4669109,-0.85421 -0.5873917,-0.0966 -1.0726116,-0.16668 -1.4242023,-0.20413 -0.1757955,-0.0187 -0.3174751,-0.0295 -0.4273643,-0.031 -0.054944,-7.4e-4 -0.1014677,8.8e-4 -0.1462442,0.007 -0.044777,0.006 -0.089698,-0.005 -0.166915,0.0723 -0.081776,0.0818 -0.068172,0.14281 -0.067696,0.18965 4.762e-4,0.0469 0.00703,0.0912 0.017053,0.14263 0.020038,0.10289 0.055702,0.23127 0.1059367,0.38964 0.10047,0.31674 0.2595526,0.74981 0.4661215,1.27331 0.4131379,1.04699 1.015605,2.45231 1.7094562,3.96772 0.6919577,1.51126 1.3211768,2.94054 1.7766358,4.02352 0.2277295,0.5415 0.4124656,0.99665 0.5389851,1.33067 0.06326,0.16701 0.1116698,0.30364 0.1436606,0.40359 0.031991,0.1 0.042375,0.18592 0.042375,0.15297 0,-0.0462 -0.010519,0.0426 -0.048576,0.14107 -0.038057,0.0985 -0.096842,0.23408 -0.1725993,0.39946 -0.1515139,0.33075 -0.3724048,0.78144 -0.6454386,1.31775 -0.5460683,1.07262 -1.300348,2.48793 -2.1301027,3.98374 -0.8866921,1.59845 -1.5679523,2.77298 -1.9848917,3.63492 -0.2084696,0.43097 -0.3518871,0.78329 -0.4201294,1.08262 -0.068242,0.29932 -0.062514,0.56327 0.073897,0.77101 0.1364112,0.20774 0.3768991,0.31558 0.675411,0.36484 0.2985117,0.0492 0.6723325,0.0471 1.1420491,0.0134 0.9394333,-0.0673 2.2619279,-0.26557 4.0457479,-0.49764 3.5307704,-0.45934 5.0531564,-0.75119 6.2487144,-0.32298 1.195558,0.42821 2.181224,1.618 4.606437,4.2106 1.168011,1.24862 2.26257,2.38378 3.08715,3.20807 0.41229,0.41214 0.757124,0.74621 1.011308,0.97978 0.127092,0.11679 0.231117,0.20828 0.313159,0.27389 0.04102,0.0328 0.07589,0.0588 0.110071,0.0806 0.03418,0.0218 0.04411,0.0532 0.153479,0.0532 0.05231,0 0.126182,-0.003 0.202571,-0.0403 0.07639,-0.0375 0.139138,-0.10354 0.188103,-0.18396 0.09793,-0.16086 0.174001,-0.39921 0.285254,-0.84233 0.222505,-0.88624 0.5618,-2.58465 1.217496,-5.88905 0.277965,-1.40081 0.568734,-2.72112 0.812355,-3.71708 0.121809,-0.49798 0.232293,-0.91506 0.322461,-1.21853 0.04508,-0.15174 0.08487,-0.27531 0.117821,-0.3638 0.03295,-0.0885 0.07201,-0.15119 0.05788,-0.13385 -0.01907,0.0234 0.04491,-0.0369 0.137459,-0.0951 0.09255,-0.0582 0.223263,-0.13393 0.385506,-0.22324 0.324487,-0.17863 0.776091,-0.41199 1.3193,-0.68317 1.086413,-0.54234 2.540738,-1.235 4.098975,-1.94561 1.561475,-0.7121 2.980766,-1.38364 4.011123,-1.8924 0.51518,-0.25437 0.93282,-0.46777 1.224732,-0.62683 0.145958,-0.0795 0.259826,-0.14498 0.342614,-0.19792 0.04139,-0.0265 0.07476,-0.049 0.104905,-0.0739 0.01507,-0.0125 0.02922,-0.0247 0.04651,-0.0455 0.01729,-0.0208 0.05218,-0.0475 0.05116,-0.13746 -9.76e-4,-0.0867 -0.03152,-0.10867 -0.04703,-0.12868 -0.01551,-0.02 -0.0287,-0.0324 -0.04289,-0.0455 -0.02837,-0.0261 -0.06063,-0.0512 -0.10077,-0.0806 -0.08028,-0.0588 -0.191082,-0.1331 -0.333311,-0.22376 -0.284462,-0.18131 -0.691793,-0.42695 -1.193726,-0.72088 -1.003866,-0.58787 -2.386007,-1.36783 -3.906221,-2.19987 -1.68852,-0.92415 -3.093111,-1.75164 -4.092257,-2.40295 -0.499573,-0.32565 -0.897716,-0.60773 -1.176671,-0.83251 -0.278958,-0.22478 -0.435375,-0.42419 -0.442352,-0.44338 -0.02349,-0.0646 -0.07871,-0.31586 -0.134358,-0.66198 -0.05565,-0.34612 -0.118642,-0.80057 -0.185002,-1.33015 -0.13272,-1.05916 -0.278574,-2.41823 -0.404627,-3.8194 -0.241739,-2.68709 -0.407806,-4.29365 -0.573091,-5.2431 -0.08264,-0.47472 -0.162178,-0.78431 -0.266134,-0.99942 -0.05198,-0.10755 -0.111602,-0.1944 -0.191719,-0.25838 -0.08012,-0.064 -0.182233,-0.0971 -0.275436,-0.0971 z m 0.02377,0.38706 c 0.0043,0.002 0.0087,-1.9e-4 0.01602,0.006 0.0183,0.0146 0.05101,0.052 0.08733,0.12712 0.07264,0.1503 0.153986,0.43953 0.234094,0.89969 0.160216,0.92032 0.327404,2.52705 0.568958,5.21209 0.126425,1.4053 0.27222,2.76793 0.40566,3.83284 0.06672,0.53245 0.130307,0.99002 0.187068,1.34307 0.05676,0.35304 0.09974,0.58769 0.151929,0.73122 0.07729,0.21258 0.265235,0.37015 0.560689,0.60823 0.295458,0.23808 0.701593,0.52483 1.207678,0.85473 1.012174,0.6598 2.422636,1.49055 4.117062,2.41794 1.517549,0.83058 2.897754,1.60958 3.896921,2.1947 0.499581,0.29255 0.904258,0.53705 1.181322,0.71365 0.100605,0.0641 0.162946,0.10787 0.227375,0.15244 -0.06495,0.0388 -0.126047,0.0756 -0.22634,0.13023 -0.283655,0.15456 -0.69872,0.36702 -1.211297,0.62012 -1.025155,0.50619 -2.441723,1.17594 -4.000273,1.8867 -1.561787,0.71223 -3.019382,1.40617 -4.111376,1.9513 -0.545997,0.27257 -1.000606,0.50808 -1.332735,0.69092 -0.166066,0.0914 -0.301144,0.16939 -0.404109,0.23409 -0.102968,0.0647 -0.164087,0.0961 -0.229444,0.17622 -0.06042,0.0741 -0.08099,0.13913 -0.118856,0.24081 -0.03786,0.10168 -0.08004,0.23135 -0.126608,0.38809 -0.09314,0.31348 -0.203869,0.73438 -0.326595,1.2361 -0.245451,1.00345 -0.537043,2.32796 -0.815971,3.73362 -0.655659,3.30421 -0.996595,5.00705 -1.213362,5.87045 -0.108384,0.43169 -0.191789,0.6552 -0.241846,0.73742 -0.02413,0.0396 -0.03169,0.0406 -0.03049,0.0398 -0.0157,-0.0107 -0.03538,-0.0242 -0.0646,-0.0475 -0.06973,-0.0558 -0.169962,-0.14329 -0.293523,-0.25684 -0.24712,-0.22708 -0.589325,-0.55898 -0.999422,-0.96893 -0.820194,-0.81991 -1.913309,-1.95327 -3.078882,-3.19929 -2.420018,-2.58704 -3.4163,-3.82887 -4.754748,-4.30826 -1.338448,-0.47939 -2.902175,-0.15451 -6.4254476,0.30386 -1.7873723,0.23253 -3.1119566,0.43023 -4.0235269,0.49558 -0.4557853,0.0327 -0.8087868,0.0311 -1.0536825,-0.009 -0.2448957,-0.0404 -0.3642923,-0.11234 -0.4211629,-0.19895 -0.056871,-0.0866 -0.07782,-0.23167 -0.021187,-0.48008 0.056633,-0.2484 0.1896305,-0.58266 0.3922241,-1.00148 0.4051869,-0.83765 1.0861812,-2.01535 1.9745563,-3.61684 0.8316555,-1.49924 1.5878685,-2.91681 2.1368205,-3.9951 0.2744761,-0.53915 0.4968761,-0.99325 0.6521566,-1.33222 0.07764,-0.16949 0.1386126,-0.31 0.1813843,-0.42065 0.042772,-0.11064 0.074414,-0.16367 0.074414,-0.27698 0,-0.10006 -0.025054,-0.15757 -0.060461,-0.2682 -0.035407,-0.11063 -0.085729,-0.25152 -0.1503784,-0.4222 -0.1292989,-0.34136 -0.3153444,-0.79953 -0.5441529,-1.34359 -0.4576167,-1.08812 -1.0878881,-2.51945 -1.7812866,-4.03386 -0.6915047,-1.51028 -1.2917247,-2.91195 -1.701188,-3.94963 -0.2047317,-0.51884 -0.3621709,-0.94737 -0.4578533,-1.24902 -0.04221,-0.13307 -0.066925,-0.22991 -0.083716,-0.30644 0.088478,0.002 0.2098654,0.0104 0.3689696,0.0274 0.3386955,0.0361 0.8192387,0.10513 1.4024983,0.20102 1.1665196,0.19176 2.7451994,0.49098 4.4503744,0.85111 l 6.304524,1.33118 4.71134,-4.33927 c 1.274856,-1.17418 2.465119,-2.24197 3.354318,-3.0148 0.444599,-0.38641 0.814508,-0.69922 1.080037,-0.91364 0.132765,-0.10721 0.239668,-0.19018 0.314193,-0.24339 0.02892,-0.0207 0.04748,-0.0322 0.0646,-0.0429 z"
       id="path3798"
       inkscape:connector-curvature="0" />
    <path
       style="fill:#88aa00;stroke-width:18.89763804;stroke-miterlimit:4;stroke-dasharray:none"
       d="m 2.3726622,757.33174 c 0,-0.66641 33.0032658,-1.01015 96.9894918,-1.01015 h 96.989496 l 1.99971,-3.28299 c 1.09984,-1.80565 20.29868,-36.56224 42.66409,-77.23686 l 40.66439,-73.95387 133.57343,-0.0398 133.57343,-0.0398 0.53219,2.27284 c 0.29271,1.25007 3.94472,34.09265 8.11557,72.98353 4.17086,38.89087 7.85547,72.64259 8.18804,75.00382 l 0.60468,4.29315 h 94.83963 c 79.9226,0 94.83965,-0.21906 94.83965,-1.39278 0,-1.50935 -28.71742,-216.75755 -65.71667,-492.57181 C 659.9313,36.494146 656.06892,7.8381888 655.47678,4.5155593 l -0.49507,-2.7779195 h 53.00776 53.00775 V 380.03977 758.3419 H 381.68494 c -252.20142,0 -379.3122778,-0.33852 -379.3122778,-1.01016 z"
       id="path3833"
       inkscape:connector-curvature="0"
       transform="matrix(0.26458333,0,0,0.26458333,0,97.000002)" />
    <path
       style="fill:#15e8d6;stroke-width:18.89763804;fill-opacity:1;stroke-miterlimit:4;stroke-dasharray:none"
       d="m 360.72428,464.67414 c -1.52786,-0.23146 -2.77792,-0.60563 -2.77792,-0.8315 0,-0.22587 11.879,-21.90133 26.39777,-48.16768 32.26708,-58.37536 113.7878,-205.52428 117.5777,-212.23355 1.51377,-2.67983 3.07943,-4.4981 3.47924,-4.04061 0.76475,0.87508 6.9846,56.30086 20.2712,180.63897 4.39329,41.11321 8.25969,77.13777 8.59198,80.05459 l 0.60417,5.3033 -85.68311,-0.15135 c -47.12571,-0.0833 -86.93318,-0.34073 -88.46103,-0.57217 z"
       id="path3835"
       inkscape:connector-curvature="0"
       transform="matrix(0.26458333,0,0,0.26458333,0,97.000002)" />
    <path
       style="fill:#88aa00;stroke-width:18.89763804;stroke-miterlimit:4;stroke-dasharray:none"
       d="m 17.52495,757.33174 c -5.278047,-0.34288 32.798759,-0.71045 84.61512,-0.81679 l 94.21158,-0.19336 1.83618,-3.01937 c 1.0099,-1.66065 20.20875,-36.41925 42.6641,-77.24133 l 40.82791,-74.22197 133.57343,-0.0353 133.57343,-0.0354 0.47768,2.27284 c 0.57756,2.748 1.82699,13.99975 9.6747,87.12566 3.33895,31.1127 6.34574,58.50732 6.68174,60.87694 l 0.61092,4.30838 94.24833,-0.26777 c 51.83657,-0.14728 94.53666,-0.55622 94.88907,-0.90877 C 756.12871,754.45573 736.37821,605.51391 675.12309,149.725 665.71505,79.721416 657.54016,18.809218 656.95666,14.364547 656.37318,9.9198754 655.67008,5.2605468 655.39424,4.010483 l -0.50152,-2.2728432 h 53.05225 53.05225 V 380.03977 758.3419 L 394.05931,758.14853 C 192.24346,758.04219 22.802997,757.67463 17.52495,757.33174 Z"
       id="path3837"
       inkscape:connector-curvature="0"
       transform="matrix(0.26458333,0,0,0.26458333,0,97.000002)" />
    <path
       style="fill:#15e8d6;stroke-width:18.89763804;fill-opacity:1;stroke-miterlimit:4;stroke-dasharray:none"
       d="m 17.52495,757.37463 c -5.278047,-0.30137 32.904544,-0.77525 84.8502,-1.05304 l 94.44665,-0.50508 42.42902,-77.00832 42.42902,-77.00833 133.57343,-0.0158 133.57343,-0.0158 0.46917,2.27284 c 0.6731,3.26078 16.74191,148.85108 16.74191,151.68894 0,0.80899 154.2101,0.74571 173.9102,-0.0714 l 15.82132,-0.65621 -0.42944,-3.1285 c -0.23619,-1.72062 -3.3963,-25.85689 -7.02248,-53.63608 C 740.95437,641.8316 720.94579,491.88087 689.21237,255.28593 658.69069,27.725359 655.97239,7.6006693 655.34006,4.5155593 l -0.56938,-2.7779195 h 53.11327 53.11327 V 380.03977 758.3419 L 394.05931,758.13225 C 192.24346,758.01694 22.802997,757.67601 17.52495,757.37463 Z"
       id="path3839"
       inkscape:connector-curvature="0"
       transform="matrix(0.26458333,0,0,0.26458333,0,97.000002)" />
    <path
       style="fill:#15e8d6;stroke-width:18.89763804;fill-opacity:1;stroke-miterlimit:4;stroke-dasharray:none"
       d="M 2.4033797,376.2517 2.3726622,1.7376398 H 219.02417 435.67569 L 432.5437,7.0409406 C 429.11877,12.840292 366.37318,121.67362 359.16352,134.32016 c -2.45467,4.30578 -4.93913,7.82868 -5.52101,7.82868 -0.86695,0 -36.69464,-19.29292 -40.86362,-22.00473 -1.0337,-0.67239 -6.35031,-43.116367 -6.35031,-50.696283 0,-1.127649 -0.4314,-2.050272 -0.95865,-2.050272 -0.52726,0 -9.4057,8.001161 -19.72988,17.780357 l -18.77123,17.780358 -25.95975,-5.59412 c -14.27786,-3.076766 -26.07635,-5.477522 -26.21885,-5.335015 -0.14252,0.142508 4.7352,10.808125 10.83936,23.701385 6.10416,12.89325 11.09847,23.84397 11.09847,24.33493 0,0.49096 -5.88387,11.03507 -13.07528,23.43136 -7.1914,12.3963 -12.92911,22.68488 -12.75048,22.86351 0.17864,0.17864 9.31081,-0.85905 20.29372,-2.30598 23.26308,-3.06477 28.42752,-3.31308 32.63748,-1.56927 1.82424,0.75563 9.60215,8.54522 18.99201,19.0205 13.37116,14.91683 16.02556,17.43345 16.67562,15.81006 0.42523,-1.0619 2.84269,-12.59335 5.37216,-25.62544 2.52946,-13.03209 4.94416,-24.03984 5.36598,-24.46166 0.99667,-0.99668 39.01532,-17.80222 39.45747,-17.44156 0.18516,0.15105 -43.95818,76.79371 -98.09631,170.31702 C 166.12614,467.76032 6.949789,742.86707 3.5891089,748.74545 2.7209311,750.26403 2.4264687,657.75945 2.4033797,376.2517 Z M 96.095715,540.90656 c 5.373325,-28.54332 5.629125,-29.41943 9.063065,-31.04044 1.52615,-0.72043 11.8662,-5.36521 22.97787,-10.32174 11.11168,-4.95653 20.57495,-9.37972 21.02949,-9.82933 0.45454,-0.44961 -8.44006,-5.90794 -19.76575,-12.12962 -11.32571,-6.22169 -21.78994,-12.30467 -23.25387,-13.51774 -2.58786,-2.14441 -2.7204,-2.82177 -4.77998,-24.42892 -1.16507,-12.22285 -2.447295,-23.786 -2.849386,-25.69591 l -0.731076,-3.47254 -19.285203,18.21541 -19.285203,18.21543 -25.454761,-5.50361 c -14.000118,-3.02698 -25.6777373,-5.28063 -25.950264,-5.0081 -0.2725267,0.27252 4.33575,10.83589 10.240615,23.47415 7.095744,15.18711 10.552797,23.7032 10.195473,25.11549 -0.297356,1.17526 -6.036831,11.62146 -12.75439,23.21376 -6.7175591,11.59231 -11.9520786,21.33859 -11.6322658,21.6584 0.3198129,0.31981 10.2301298,-0.64954 22.0229248,-2.15411 25.292289,-3.2269 27.562941,-3.28478 31.542972,-0.8041 1.666752,1.03885 9.848987,9.6407 18.182746,19.11521 8.333758,9.47451 15.400595,17.25964 15.704081,17.30029 0.303486,0.0406 2.455797,-10.04024 4.782912,-22.40198 z M 195.70446,357.08347 c 2.47961,-13.18156 4.78933,-24.42106 5.13273,-24.97667 1.13889,-1.84277 12.95082,-7.87159 29.82995,-15.22521 9.16713,-3.99379 17.05704,-7.62554 17.53311,-8.07055 1.06424,-0.99476 0.77497,-1.17265 -23.9692,-14.73984 -12.02749,-6.59466 -20.41575,-11.81584 -20.92791,-13.02638 -0.47012,-1.11117 -1.95112,-12.83726 -3.29111,-26.058 -1.33999,-13.22072 -2.69613,-24.29747 -3.01364,-24.61498 -0.31751,-0.31751 -9.05816,7.43111 -19.42367,17.21916 -10.3655,9.78805 -19.59282,17.77837 -20.50516,17.75628 -0.91233,-0.0221 -12.68208,-2.45134 -26.15499,-5.39831 -13.47291,-2.94696 -24.4962,-5.0383 -24.4962,-4.6474 0,0.39089 5,11.29295 11.1111,24.22678 l 11.11108,23.51605 -13.20261,22.68492 c -7.26144,12.47671 -12.97289,22.91464 -12.69212,23.19543 0.28078,0.28077 11.6756,-0.93234 25.32182,-2.69581 l 24.81132,-3.20629 4.50945,3.86135 c 2.4802,2.12374 10.98821,11.07058 18.9067,19.88188 7.91849,8.8113 14.51059,15.62983 14.64911,15.15229 0.13853,-0.47754 2.28064,-11.65315 4.76024,-24.8347 z"
       id="path3841"
       inkscape:connector-curvature="0"
       transform="matrix(0.26458333,0,0,0.26458333,0,97.000002)" />
  </g>
</svg>
